<?xml version="1.0" encoding="utf-8" ?><svg xmlns="http://www.w3.org/2000/svg" xmlns:xlink="http://www.w3.org/1999/xlink" width="5096" height="5096" viewBox="0 0 5096 5096"><path fill="#12233F" transform="scale(4.97656 4.97656)" d="M380.561 293.724C398.5 292.954 421.299 293.56 439.637 293.526L556.615 293.48L614.428 293.471C645.965 293.366 668.287 291.376 694.377 313.528C712.341 328.551 723.49 350.182 725.301 373.53C726.475 389.836 725.677 416.933 725.669 433.869L725.531 545.972L725.568 611.975C725.605 626.13 726.357 646.066 723.937 659.586C721.076 675.332 713.939 689.987 703.306 701.947C687.568 719.896 667.157 728.841 643.625 730.373C624.81 731.173 600.928 730.609 581.836 730.594L470.378 730.523L410.357 730.557C398.534 730.587 379.638 731.202 368.539 729.183C353.884 726.414 340.252 719.728 329.09 709.835C311.124 694.011 300.307 671.604 299.092 647.693C298.264 632.204 299.083 609.868 299.059 593.684L299.022 478.448L299 408.68C298.992 396.351 298.396 375.002 300.438 363.487C303.276 348.089 310.312 333.774 320.768 322.12C336.204 305.18 357.678 294.982 380.561 293.724ZM323.573 497.282C335.138 476.661 348.087 461.451 369.466 450.378C438.631 414.557 519.055 448.233 587.622 466.383C611.71 472.903 659.855 479.819 681.922 467.076C691.004 461.831 697.307 453.162 699.861 443.028C702.295 433.371 701.556 378.397 699.706 368.333C698.312 360.943 695.58 353.87 691.645 347.462C670.823 313.374 637.308 317.979 603.047 317.978L525.236 317.981L432.933 318.035C417.603 318.033 397.524 317.446 382.45 318.207C343.467 321.459 321.946 351.008 323.302 388.687C324.589 424.438 322.162 461.485 323.573 497.282ZM701.032 604.187C701.026 603.663 701.187 600.608 700.775 600.291C700.455 600.378 700.138 601.165 700.031 601.354C689.017 630.884 661.287 633.081 633.077 631.63C611.43 630.516 589.933 626.254 568.876 621.233C515.205 606.452 465.647 582.227 408.278 589.671C374.937 593.1 340.65 607.45 327.877 640.916C323.653 651.983 324.34 658.615 329.205 669.621C337.928 689.355 358.326 704.148 380.012 705.401C395.978 706.324 412.748 705.851 428.796 705.85L515.621 705.81L599.639 705.813C613.86 705.815 627.886 706.022 642.353 705.65C671.079 704.911 697.271 680.762 700.349 652.199C701.945 637.388 701.014 619.416 701.032 604.187ZM700.958 478.241C700.977 477.558 701.234 473.989 700.747 473.615L700.652 473.67C700.413 474.134 700.408 474.301 700.268 474.842C691.985 501.247 668.634 505.984 644.018 506.173C567.169 506.765 500.009 459.861 422.245 467.436C369.869 472.539 328.436 499.073 322.879 554.949C347.051 501.911 413.486 490.474 465.575 497.749C507.562 503.614 544.537 518.576 584.958 529.216C607.661 535.193 656.698 540.668 678.39 531.291C686.757 527.688 693.533 521.174 697.462 512.955C702.635 501.91 701.54 490.12 700.958 478.241ZM323.236 612.126C366.81 534.366 470.409 555.305 539.569 579.114C551.805 583.326 572.445 589.756 585.073 591.876C616.221 598.478 691.707 612.563 700.153 568.131C701.921 558.828 700.349 546.331 700.881 536.616C690.367 563.043 671.314 569.055 644.091 569.677C585.62 571.014 532.278 543.545 476.108 531.843C459.481 528.388 442.49 527.004 425.523 527.721C372.807 529.935 328.527 555.636 323.236 612.126Z"/><path fill="#BDBDCD" fill-opacity="0.29019609" transform="scale(4.97656 4.97656)" d="M700.268 474.842C700.408 474.301 700.413 474.134 700.652 473.67L700.747 473.615C701.234 473.989 700.977 477.558 700.958 478.241C700.673 477.027 700.461 476.075 700.268 474.842Z"/><path fill="#BDBDCD" fill-opacity="0.16470589" transform="scale(4.97656 4.97656)" d="M700.031 601.354C700.138 601.165 700.455 600.378 700.775 600.291C701.187 600.608 701.026 603.663 701.032 604.187C700.683 603.232 700.351 602.322 700.031 601.354Z"/></svg>